<?xml version="1.0" encoding="utf-8"?>
<!-- Generator: Adobe Illustrator 22.1.0, SVG Export Plug-In . SVG Version: 6.00 Build 0)  -->
<svg version="1.1" xmlns="http://www.w3.org/2000/svg" xmlns:xlink="http://www.w3.org/1999/xlink" x="0px" y="0px"
	 viewBox="0 0 1085 611.8" style="enable-background:new 0 0 1085 611.8;" xml:space="preserve">
<style type="text/css">
	.st0{display:none;}
	.st1{display:inline;opacity:0.1;fill:#6B7280;enable-background:new    ;}
	.st2{display:inline;fill:#4B5563;}
	.st3{opacity:0.1;fill:#6B7280;enable-background:new    ;}
	.st4{opacity:0.2;}
	.st5{fill:none;stroke:#6B7280;stroke-width:2;stroke-miterlimit:10;}
	.st6{opacity:0.4;fill:#6B7280;enable-background:new    ;}
	.st7{opacity:0.4;enable-background:new    ;}
	.st8{fill:#6B7280;}
	.st9{display:inline;fill:#1A202C;}
</style>
<g id="Layer_2_1_" class="st0">
	<path class="st1" d="M505,152.4c-34.6,17.4-72.5,25-109.5,30.9s-74.2,10.3-110.6,22.6c-23.4,7.9-48.2,20.6-59.7,40.5
		c-11.1,19-7,39.3-1.1,57c4.5,13.3,10.1,26.8,22.2,34.9c8.4,5.6,19.3,8.3,28.5,13.1c31.9,16.7,37.1,55.9,31.9,91.9
		c-2.4,16.9-6.5,34-6.5,50.6c0.1,16.6,4.8,33,18,42.7c13,9.7,32.6,11.7,51.8,10.1c38.9-3.1,78.2-19.3,115.5-36.7
		c82.6-38.4,161.8-84.2,240.7-129.9c29.2-16.9,58.5-33.9,85.4-53.9c14.9-11.1,29.7-23.9,36.6-39.2c8.8-19.4,2.1-40.6-15.6-49.3
		c-29.7-14.7-79.3,4.6-104.9-14.5c-14.1-10.5-16-29.8-13.7-47.9c4.9-38.9,25.3-81.7,9.8-114.6c-10.7-22.6-65.1-32.7-104.8-7.4
		C583.4,76,535.6,137,505,152.4z"/>
	<path id="Path_177" class="st2" d="M162.1,316.8c0,0-21.9-22-33.6-3.4c0,0-3.1,2.4-1.6,6c0,0,1.1-1.1,3.1,1.3
		c0.7,0.9,1.5,1.7,2.4,2.3c1.2,0.9,2.7,1.4,4.2,1.5l0,0c0,0,8.9,3.1,20.9-5.3c0,0,3.9-0.6,4.4-1.3l-5.4-1.8c0,0-1.2,4-4.3,5.4
		c0,0,4.3-5.2,3.5-5.8c-0.2-0.1-2.9-0.8-2.9-0.8s-2.1,6.9-7,9c0,0,6-5.4,5.9-9.3l-4.2-0.8c0,0-1.8,7.5-7.3,9.9c0,0,6.1-5.9,6.4-10.1
		l-4.2-0.2c0,0-1.9,7.2-6.5,9.3c0,0,6.4-7.6,5.6-9.3c0,0-3.9,0-4.9,0.5c0,0-1.5,5.2-4.3,6.1c0,0,3.7-5.5,3.2-6c0,0-5.1,1.3-7.3,3.4
		c0,0,3.1-3.2,7-4.2c0,0-2.4-1.5-4.9-1.2c0,0,2.4-2,6.1,0.9c0,0,4-0.9,4.6-0.6c0,0-3.2-3.4-6.2-4.3c0,0,3.8-0.5,7.3,4.4l4.2,0.2
		c0,0-4-4.7-6.6-5.8c0,0,4,0.1,7.7,5.9l4.1,0.8c0,0-3.2-4.3-5.8-6.1c0,0,3.7,0.8,7,6.4l2.7,0.8c0,0-2.4-3.1-3.2-3.9
		s-0.6-1.1-0.6-1.1c2.1,1.3,3.8,3.2,4.9,5.4C156.5,315.1,161.9,317.2,162.1,316.8z"/>
	<path id="Path_177_1_" class="st2" d="M339.2,233.7c0,0-60-14.5-60.5,29.4c0,0-2.8,7.2,3.4,11.9c0,0,0.7-3.1,6.6-1
		c2.1,0.7,4.3,1.3,6.5,1.5c3,0.3,6.1-0.4,8.7-1.8l0,0c0,0,18.4-4,30-30.6c0,0,6-5.2,6.1-6.8l-11,2.5c0,0,2.2,8-1.7,13.6
		c0,0,2.1-13.3,0-13.4c-0.4,0-5.7,1.6-5.7,1.6s3.7,13.9-2.5,22.5c0,0,4.6-15.5,0.4-21.9l-8,3c0,0,4.6,14.6-2.1,24.5
		c0,0,4.2-16.5,0.3-23.8l-7.4,3.9c0,0,4.3,14.3-1.3,22.6c0,0,3-19.4-0.3-21.6c0,0-6.6,4.1-7.9,6c0,0,2.8,10.3-0.9,14.8
		c0,0,0.6-13.2-0.9-13.5c0,0-7.2,7.5-8.9,13.3c0,0,1.8-8.6,7.7-14.4c0,0-5.7,0-9.5,2.9c0,0,2-5.9,11.3-4.8c0,0,5.8-5.6,7.2-5.8
		c0,0-9.1-2.4-15-1c0,0,5.9-4.8,17-0.2l7.4-4.2c0,0-11.8-3.8-17.3-2.9c0,0,6.8-4,19.2,2l7.8-2.9c0,0-10-4-16.2-4.4
		c0,0,7.1-2.4,18.5,3.6l5.4-1.3c0,0-7.3-2.9-9.5-3.5s-2.1-1.3-2.1-1.3c5,0,9.8,1.5,13.9,4.1C327.9,236.5,339.2,234.4,339.2,233.7z"
		/>
	<path id="Path_177_2_" class="st2" d="M430.6,153.2c0,0,68.2,5.5,61.1-42.5c0,0,1.8-8.4-5.8-12.4c0,0-0.2,3.6-7.1,2.2
		c-2.5-0.5-5-0.6-7.4-0.5c-3.4,0.1-6.5,1.4-9.1,3.5l0,0c0,0-19.3,7.6-27.5,38.7c0,0-5.6,6.7-5.5,8.5l11.6-4.7c0,0-3.7-8.4-0.5-15.3
		c0,0,0.1,14.9,2.3,14.7c0.5,0,6.1-2.7,6.1-2.7s-6.5-14.5-1.1-25c0,0-2.3,17.8,3.4,24.1l8.3-4.6c0,0-7.7-15.1-1.9-27.2
		c0,0-1.8,18.7,3.7,26.1l7.5-5.6c0,0-7.2-14.9-2.4-25c0,0,0.2,21.8,4,23.6c0,0,6.6-5.6,7.6-7.8c0,0-4.9-10.9-1.6-16.4
		c0,0,1.6,14.6,3.3,14.7c0,0,6.6-9.4,7.4-16.1c0,0-0.5,9.8-5.9,17c0,0,6.2-0.9,9.9-4.9c0,0-1.1,6.7-11.5,7.1c0,0-5.5,7.1-6.8,7.6
		c0,0,10.3,1.1,16.6-1.6c0,0-5.7,6.3-18.6,3.1l-7.5,5.8c0,0,13.6,2.1,19.4,0.2c0,0-6.8,5.5-21.3,1.1l-8,4.6c0,0,11.5,2.7,18.5,2
		c0,0-7.4,3.8-20.8-0.7l-5.7,2.4c0,0,8.4,1.9,11,2.2c2.6,0.3,2.6,1,2.6,1c-5.4,0.9-10.9,0.1-15.9-2.1
		C442.4,148.3,430.3,152.6,430.6,153.2z"/>
	<path id="Path_178" class="st2" d="M403.3,459.7c0,0,26.3,43.7,52.4,18.6c0,0,5.9-2.6,5-8.9c0,0-2.3,1.5-4.4-3.3
		c-0.8-1.6-1.8-3.3-2.9-4.7c-1.6-1.9-3.7-3.3-6.1-4l0,0c0,0-13-8.4-35.5,0.2c0,0-6.5-0.5-7.5,0.4l7.9,5c0,0,3.5-5.9,9-7
		c0,0-9,6.5-7.9,7.8c0.2,0.3,4.3,2.5,4.3,2.5s6.1-10.3,14.7-11.6c0,0-11.8,6.3-13.1,12.4l6.4,3c0,0,5.9-11.2,15.6-13.1
		c0,0-12.1,7-14.2,13.6l6.7,2.1c0,0,5.9-10.8,14.1-12.3c0,0-13.1,9.6-12.5,12.7c0,0,6.2,1.5,8.1,1.2c0,0,4.5-7.7,9.2-8.1
		c0,0-8.1,7.3-7.5,8.3c0,0,8.6-0.1,12.9-2.5c-3.9,2.4-8.3,3.7-12.9,3.9c2,2,4.5,3.3,7.3,3.9c0,0-4.6,2.3-9.4-3.9
		c0,0-6.8-0.2-7.6-0.9c0,0,3.8,6.7,8.2,9.4c0,0-6.3-0.7-9.9-9.9l-6.7-1.9c0,0,4.6,9.2,8.3,11.9c0,0-6.3-1.7-10-12.5l-6.2-2.8
		c0,0,3.4,8.2,6.9,12.1c0,0-5.5-2.9-8.6-13l-4-2.4c0,0,2.6,6,3.4,7.6s0.5,2,0.5,2c-2.8-2.9-4.8-6.6-5.7-10.6
		C411.5,464.8,403.6,459.2,403.3,459.7z"/>
	<path id="Path_178_1_" class="st2" d="M218.2,123.1c0,0-18.6-89.8-77.9-62.7c0,0-11.5,0.9-13.8,12.2c0,0,4.7-1.1,5.5,8.3
		c0.3,3.4,1.1,6.6,2.2,9.7c1.5,4.3,4.3,7.9,8,10.5l0,0c0,0,17,22.2,60.3,20.7c0,0,10.8,4.7,13,3.9L205,112.5c0,0-9.4,8-19.4,6.5
		c0,0,19.2-5.7,18-8.5c-0.2-0.6-5.8-6.8-5.8-6.8s-16.4,13.9-31.8,10.9c0,0,23.8-3.7,29.7-13.4l-9.1-8.8c0,0-16.6,15.5-34.3,12.8
		c0,0,24.7-4.7,32.3-14.6l-10-7.5c0,0-16.4,14.8-31.3,12.4c0,0,28-8.5,28.8-14.1c0,0-9.6-6.4-13-6.8c0,0-12.2,10.5-20.5,8.3
		c0,0,18.2-7.6,17.6-9.7c0,0-14.7-4.9-23.4-3.5c8-1.7,16.3-1.3,24.2,1.1c-2.2-4.5-5.7-8.4-10.1-10.9c0,0,9.2-1.1,13.5,12.2
		c0,0,11.4,4.4,12.4,6c0,0-2.5-13.7-8.4-20.8c0,0,10.3,4.9,11,22.7l10.2,7.2c0,0-2.5-18.3-7.1-25.1c0,0,9.7,6.6,9.5,27.1l8.9,8.5
		c0,0-0.8-15.9-4.4-24.5c0,0,7.6,8.1,6.9,27.1l5.3,6.5c0,0-0.8-11.6-1.4-14.9c-0.5-3.4,0.3-3.7,0.3-3.7c3,6.6,4.2,14,3.3,21.4
		C207.2,109.5,217.3,123.6,218.2,123.1z"/>
</g>
<g id="Layer_3">
	<circle class="st3" cx="919.6" cy="469" r="79"/>
	<circle class="st3" cx="588.6" cy="310.4" r="79"/>
	<circle class="st3" cx="758.5" cy="135" r="79"/>
	<circle class="st3" cx="156" cy="50.4" r="97.6"/>
	<g class="st4">
		<line class="st5" x1="918.9" y1="611.9" x2="919.5" y2="488.8"/>
		<line class="st5" x1="584.1" y1="602" x2="588.7" y2="330.6"/>
		<path class="st5" d="M584.2,596.5c0,0,2.2-124-40.2-124"/>
		<line class="st5" x1="758.6" y1="613.3" x2="758.6" y2="155.3"/>
		<path class="st5" d="M758.6,607.7c0,0,0-126.8-42-126.8"/>
		<path class="st5" d="M758.9,411.2c0,0-0.4-115,43.6-115"/>
	</g>
	<path class="st3" d="M315.3,277.5c-15.7,0-28.4-12.7-28.4-28.4s12.7-28.4,28.4-28.4s28.4,12.7,28.4,28.4
		C343.7,264.8,331,277.5,315.3,277.5z M315.3,223.3c-14.3,0-25.8,11.6-25.8,25.8c0,14.3,11.6,25.8,25.8,25.8s25.8-11.6,25.8-25.8
		C341.2,234.8,329.6,223.3,315.3,223.3z"/>
	<path class="st3" d="M1021.8,127.4c-15.7,0-28.4-12.7-28.4-28.4s12.7-28.4,28.4-28.4c15.7,0,28.4,12.7,28.4,28.4
		C1050.2,114.7,1037.5,127.4,1021.8,127.4z M1021.8,73.2c-14.3,0-25.8,11.6-25.8,25.8s11.6,25.8,25.8,25.8s25.8-11.6,25.8-25.8
		C1047.6,84.7,1036.1,73.2,1021.8,73.2z"/>
	<path class="st6" d="M584.1,127.4c-15.7,0-28.4-12.7-28.4-28.4s12.7-28.4,28.4-28.4s28.4,12.7,28.4,28.4
		C612.5,114.7,599.8,127.4,584.1,127.4z M584.1,73.2c-14.3,0-25.8,11.6-25.8,25.8s11.6,25.8,25.8,25.8S610,113.3,610,99
		C609.9,84.7,598.4,73.2,584.1,73.2z"/>
	<g class="st7">
		<circle class="st8" cx="919.5" cy="468.6" r="20.3"/>
		<path class="st8" d="M919.1,596.5c0,0-2.6-62.3-62-55.3"/>
		<circle class="st8" cx="588.7" cy="310.3" r="20.3"/>
		<path class="st8" d="M587.4,449.3c0,0-1.9-62.3-61.4-56"/>
		<circle class="st8" cx="523.9" cy="470" r="20.3"/>
		<circle class="st8" cx="758.6" cy="135" r="20.3"/>
		<circle class="st8" cx="696.3" cy="480.9" r="20.3"/>
		<path class="st8" d="M758.6,287c0,0-2.9-62.3-62.2-55"/>
		<path class="st8" d="M758.6,415.1c0,0-2.9-62.3-62.2-55"/>
		<circle class="st8" cx="822.1" cy="290.8" r="20.3"/>
		<circle class="st8" cx="1010.2" cy="290.2" r="16.8"/>
	</g>
</g>
<g id="Layer_4" class="st0">
	<path class="st9" d="M171.6,611.8c0,0,3-260.2,159-285.7c156-25.5,139.5,193.5,340.5,51S922.9,27.6,1085,99.6v512.2H171.6z"/>
</g>
</svg>
