<?xml version="1.0" encoding="utf-8"?>
<!-- Generator: Adobe Illustrator 22.1.0, SVG Export Plug-In . SVG Version: 6.00 Build 0)  -->
<svg version="1.1" id="Layer_2_1_" xmlns="http://www.w3.org/2000/svg" xmlns:xlink="http://www.w3.org/1999/xlink" x="0px" y="0px"
	 viewBox="0 0 1085 822.8" style="enable-background:new 0 0 1085 822.8;" xml:space="preserve">
<style type="text/css">
	.st0{opacity:0.1;fill:#6B7280;enable-background:new    ;}
	.st1{fill:#4B5563;}
</style>
<path class="st0" d="M728.3,224.4c-34.6,17.4-72.5,25-109.5,30.9s-74.2,10.3-110.6,22.6c-23.4,7.9-48.2,20.6-59.7,40.5
	c-11.1,19-7,39.3-1.1,57c4.5,13.3,10.1,26.8,22.2,34.9c8.4,5.6,19.3,8.3,28.5,13.1c31.9,16.7,37.1,55.9,31.9,91.9
	c-2.4,16.9-6.5,34-6.5,50.6c0.1,16.6,4.8,33,18,42.7c13,9.7,32.6,11.7,51.8,10.1c38.9-3.1,78.2-19.3,115.5-36.7
	c82.6-38.4,161.8-84.2,240.7-129.9c29.2-16.9,58.5-33.9,85.4-53.9c14.9-11.1,29.7-23.9,36.6-39.2c8.8-19.4,2.1-40.6-15.6-49.3
	c-29.7-14.7-79.3,4.6-104.9-14.5c-14.1-10.5-16-29.8-13.7-47.9c4.9-38.9,25.3-81.7,9.8-114.6c-10.7-22.6-38.8-35.7-69.5-32.5
	c-32.2,3.4-67.9,24.6-77.5,53.2C790.1,182.8,758.9,209,728.3,224.4z"/>
<path id="Path_177" class="st1" d="M618.4,346.4c0,0-21.9-22-33.6-3.4c0,0-3.1,2.4-1.6,6c0,0,1.1-1.1,3.1,1.3
	c0.7,0.9,1.5,1.7,2.4,2.3c1.2,0.9,2.7,1.4,4.2,1.5l0,0c0,0,8.9,3.1,20.9-5.3c0,0,3.9-0.6,4.4-1.3l-5.4-1.8c0,0-1.2,4-4.3,5.4
	c0,0,4.3-5.2,3.5-5.8c-0.2-0.1-2.9-0.8-2.9-0.8s-2.1,6.9-7,9c0,0,6-5.4,5.9-9.3l-4.2-0.8c0,0-1.8,7.5-7.3,9.9c0,0,6.1-5.9,6.4-10.1
	l-4.2-0.2c0,0-1.9,7.2-6.5,9.3c0,0,6.4-7.6,5.6-9.3c0,0-3.9,0-4.9,0.5c0,0-1.5,5.2-4.3,6.1c0,0,3.7-5.5,3.2-6c0,0-5.1,1.3-7.3,3.4
	c0,0,3.1-3.2,7-4.2c0,0-2.4-1.5-4.9-1.2c0,0,2.4-2,6.1,0.9c0,0,4-0.9,4.6-0.6c0,0-3.2-3.4-6.2-4.3c0,0,3.8-0.5,7.3,4.4l4.2,0.2
	c0,0-4-4.7-6.6-5.8c0,0,4,0.1,7.7,5.9l4.1,0.8c0,0-3.2-4.3-5.8-6.1c0,0,3.7,0.8,7,6.4l2.7,0.8c0,0-2.4-3.1-3.2-3.9s-0.6-1.1-0.6-1.1
	c2.1,1.3,3.8,3.2,4.9,5.4C612.8,344.7,618.2,346.8,618.4,346.4z"/>
<path id="Path_177_1_" class="st1" d="M521.9,186.4c0,0-60-14.5-60.5,29.4c0,0-2.8,7.2,3.4,11.9c0,0,0.7-3.1,6.6-1
	c2.1,0.7,4.3,1.3,6.5,1.5c3,0.3,6.1-0.4,8.7-1.8l0,0c0,0,18.4-4,30-30.6c0,0,6-5.2,6.1-6.8l-11,2.5c0,0,2.2,8-1.7,13.6
	c0,0,2.1-13.3,0-13.4c-0.4,0-5.7,1.6-5.7,1.6s3.7,13.9-2.5,22.5c0,0,4.6-15.5,0.4-21.9l-8,3c0,0,4.6,14.6-2.1,24.5
	c0,0,4.2-16.5,0.3-23.8l-7.4,3.9c0,0,4.3,14.3-1.3,22.6c0,0,3-19.4-0.3-21.6c0,0-6.6,4.1-7.9,6c0,0,2.8,10.3-0.9,14.8
	c0,0,0.6-13.2-0.9-13.5c0,0-7.2,7.5-8.9,13.3c0,0,1.8-8.6,7.7-14.4c0,0-5.7,0-9.5,2.9c0,0,2-5.9,11.3-4.8c0,0,5.8-5.6,7.2-5.8
	c0,0-9.1-2.4-15-1c0,0,5.9-4.8,17-0.2l7.4-4.2c0,0-11.8-3.8-17.3-2.9c0,0,6.8-4,19.2,2l7.8-2.9c0,0-10-4-16.2-4.4
	c0,0,7.1-2.4,18.5,3.6l5.4-1.3c0,0-7.3-2.9-9.5-3.5s-2.1-1.3-2.1-1.3c5,0,9.8,1.5,13.9,4.1C510.6,189.2,521.9,187.1,521.9,186.4z"/>
<path id="Path_177_2_" class="st1" d="M668,277c0,0,68.2,5.5,61.1-42.5c0,0,1.8-8.4-5.8-12.4c0,0-0.2,3.6-7.1,2.2
	c-2.5-0.5-5-0.6-7.4-0.5c-3.4,0.1-6.5,1.4-9.1,3.5l0,0c0,0-19.3,7.6-27.5,38.7c0,0-5.6,6.7-5.5,8.5l11.6-4.7c0,0-3.7-8.4-0.5-15.3
	c0,0,0.1,14.9,2.3,14.7c0.5,0,6.1-2.7,6.1-2.7s-6.5-14.5-1.1-25c0,0-2.3,17.8,3.4,24.1l8.3-4.6c0,0-7.7-15.1-1.9-27.2
	c0,0-1.8,18.7,3.7,26.1l7.5-5.6c0,0-7.2-14.9-2.4-25c0,0,0.2,21.8,4,23.6c0,0,6.6-5.6,7.6-7.8c0,0-4.9-10.9-1.6-16.4
	c0,0,1.6,14.6,3.3,14.7c0,0,6.6-9.4,7.4-16.1c0,0-0.5,9.8-5.9,17c0,0,6.2-0.9,9.9-4.9c0,0-1.1,6.7-11.5,7.1c0,0-5.5,7.1-6.8,7.6
	c0,0,10.3,1.1,16.6-1.6c0,0-5.7,6.3-18.6,3.1l-7.5,5.8c0,0,13.6,2.1,19.4,0.2c0,0-6.8,5.5-21.3,1.1l-8,4.6c0,0,11.5,2.7,18.5,2
	c0,0-7.4,3.8-20.8-0.7l-5.7,2.4c0,0,8.4,1.9,11,2.2c2.6,0.3,2.6,1,2.6,1c-5.4,0.9-10.9,0.1-15.9-2.1
	C679.8,272.1,667.7,276.4,668,277z"/>
<path id="Path_178" class="st1" d="M403.3,459.7c0,0,26.3,43.7,52.4,18.6c0,0,5.9-2.6,5-8.9c0,0-2.3,1.5-4.4-3.3
	c-0.8-1.6-1.8-3.3-2.9-4.7c-1.6-1.9-3.7-3.3-6.1-4l0,0c0,0-13-8.4-35.5,0.2c0,0-6.5-0.5-7.5,0.4l7.9,5c0,0,3.5-5.9,9-7
	c0,0-9,6.5-7.9,7.8c0.2,0.3,4.3,2.5,4.3,2.5s6.1-10.3,14.7-11.6c0,0-11.8,6.3-13.1,12.4l6.4,3c0,0,5.9-11.2,15.6-13.1
	c0,0-12.1,7-14.2,13.6l6.7,2.1c0,0,5.9-10.8,14.1-12.3c0,0-13.1,9.6-12.5,12.7c0,0,6.2,1.5,8.1,1.2c0,0,4.5-7.7,9.2-8.1
	c0,0-8.1,7.3-7.5,8.3c0,0,8.6-0.1,12.9-2.5c-3.9,2.4-8.3,3.7-12.9,3.9c2,2,4.5,3.3,7.3,3.9c0,0-4.6,2.3-9.4-3.9c0,0-6.8-0.2-7.6-0.9
	c0,0,3.8,6.7,8.2,9.4c0,0-6.3-0.7-9.9-9.9l-6.7-1.9c0,0,4.6,9.2,8.3,11.9c0,0-6.3-1.7-10-12.5l-6.2-2.8c0,0,3.4,8.2,6.9,12.1
	c0,0-5.5-2.9-8.6-13l-4-2.4c0,0,2.6,6,3.4,7.6s0.5,2,0.5,2c-2.8-2.9-4.8-6.6-5.7-10.6C411.5,464.8,403.6,459.2,403.3,459.7z"/>
<path id="Path_178_1_" class="st1" d="M758.4,486.2c0,0-18.6-89.8-77.9-62.7c0,0-11.5,0.9-13.8,12.2c0,0,4.7-1.1,5.5,8.3
	c0.3,3.4,1.1,6.6,2.2,9.7c1.5,4.3,4.3,7.9,8,10.5l0,0c0,0,17,22.2,60.3,20.7c0,0,10.8,4.7,13,3.9l-10.5-13.2c0,0-9.4,8-19.4,6.5
	c0,0,19.2-5.7,18-8.5c-0.2-0.6-5.8-6.8-5.8-6.8s-16.4,13.9-31.8,10.9c0,0,23.8-3.7,29.7-13.4l-9.1-8.8c0,0-16.6,15.5-34.3,12.8
	c0,0,24.7-4.7,32.3-14.6l-10-7.5c0,0-16.4,14.8-31.3,12.4c0,0,28-8.5,28.8-14.1c0,0-9.6-6.4-13-6.8c0,0-12.2,10.5-20.5,8.3
	c0,0,18.2-7.6,17.6-9.7c0,0-14.7-4.9-23.4-3.5c8-1.7,16.3-1.3,24.2,1.1c-2.2-4.5-5.7-8.4-10.1-10.9c0,0,9.2-1.1,13.5,12.2
	c0,0,11.4,4.4,12.4,6c0,0-2.5-13.7-8.4-20.8c0,0,10.3,4.9,11,22.7l10.2,7.2c0,0-2.5-18.3-7.1-25.1c0,0,9.7,6.6,9.5,27.1l8.9,8.5
	c0,0-0.8-15.9-4.4-24.5c0,0,7.6,8.1,6.9,27.1l5.3,6.5c0,0-0.8-11.6-1.4-14.9c-0.5-3.4,0.3-3.7,0.3-3.7c3,6.6,4.2,14,3.3,21.4
	C747.4,472.6,757.5,486.7,758.4,486.2z"/>
</svg>
