<?xml version="1.0" encoding="utf-8"?>
<!-- Generator: Adobe Illustrator 22.1.0, SVG Export Plug-In . SVG Version: 6.00 Build 0)  -->
<svg version="1.1" id="Layer_2_1_" xmlns="http://www.w3.org/2000/svg" xmlns:xlink="http://www.w3.org/1999/xlink" x="0px" y="0px"
	 viewBox="0 0 1085 822.8" style="enable-background:new 0 0 1085 822.8;" xml:space="preserve">
<style type="text/css">
	.st0{opacity:0.1;fill:#10B981;enable-background:new    ;}
	.st1{fill:#10B981;}
	.st2{fill:#444053;}
	.st3{fill:none;stroke:#444053;stroke-miterlimit:10;}
	.st4{fill:none;stroke:#444053;stroke-width:0.75;stroke-miterlimit:10;}
	.st5{fill:#1F2937;}
</style>
<path class="st0" d="M649.6,268.6c-34.6,17.4-72.5,25-109.5,30.9s-74.2,10.3-110.6,22.6c-23.4,7.9-48.2,20.6-59.7,40.5
	c-11.1,19-7,39.3-1.1,57c4.5,13.3,10.1,26.8,22.2,34.9c8.4,5.6,19.3,8.3,28.5,13.1c31.9,16.7,37.1,55.9,31.9,91.9
	c-2.4,16.9-6.5,34-6.5,50.6c0.1,16.6,4.8,33,18,42.7c13,9.7,32.6,11.7,51.8,10.1c38.9-3.1,78.2-19.3,115.5-36.7
	c82.6-38.4,161.8-84.2,240.7-129.9c29.2-16.9,58.5-33.9,85.4-53.9c14.9-11.1,29.7-23.9,36.6-39.2c8.8-19.4,2.1-40.6-15.6-49.3
	c-29.7-14.7-79.3,4.6-104.9-14.5c-14.1-10.5-16-29.8-13.7-47.9c4.9-38.9,25.3-81.7,9.8-114.6c-10.7-22.6-38.8-35.7-69.5-32.5
	c-32.2,3.4-67.9,24.6-77.5,53.2C711.4,227,680.2,253.2,649.6,268.6z"/>
<g>
	<path class="st1" d="M473.4,265.6c0,0-2.2,8.6,13.1,32.8c15.3,24.2,14.3,27.6,13.3,34.5c-0.8,6.9-0.8,10.7-9.7,19.2
		c0,0-26.7,8.8-30.3,14.2c-3.6,5.5,5.8,25.3,5.8,25.3s9.1,24.1-23.5,33.4c0,0-25.6,0.1-32.6,5.6c0,0,2.7-9.8-5.8-24.2
		c-8.5-14.4,3.2-28.4,3.2-28.4s9.4-5.2,15.5-5.6c6.1-0.4,7.9-3.1,4-10.1c0,0-5.6-2.9-13.3,3.3c-7.7,6.2-13.5,10.6-20.3,10.1
		c-6.8-0.5-16.3-3.3-22.6-15.9s-9.6-30-14.3-38c-4.7-8-7.3-9.9-7.3-9.9s6,4.6,26.5-10.8c20.6-15.4,31.3-8.8,31.3-8.8
		s16.5,4.4,19.2,33.6c0,0,4.9,27.8,14.6,10.9c0,0-3.3-9.5-9.9-23.4c-6.6-14,11.1-27.1,24-31.5C467.5,277.7,473.4,265.6,473.4,265.6z
		"/>
	<path class="st2" d="M366.9,318.1l-0.1-0.2c4.1-1.7,22.8,8.5,37.8,17.3l-0.1,0.2C383.5,323.1,370,316.9,366.9,318.1z"/>
	<path class="st2" d="M404.3,335.4l0.2-0.1c12,7.1,26.4,16.1,37.2,23.3c1.1,0.7,2.1,1.4,3.2,2l-0.2,0.3c-1.1-0.6-2.1-1.4-3.2-2
		C430.7,351.5,416.3,342.3,404.3,335.4z"/>
	<path class="st2" d="M444.3,360.6l0.3-0.2c21.6,13,52,9.9,52.3,9.9l-3.3,3.9C493.3,374.2,466.1,373.7,444.3,360.6z"/>
	<path class="st3" d="M465.3,285.1c0,0-7.1,19.7-1.7,33.6c5.4,13.9-5.8,48.3-5.8,48.3s-3.7,14.5-9.7,18.1c0,0-8.6,10.8-13.7,12
		s-16.8,12.1-16.5,18.2"/>
	<path class="st3" d="M474.9,286.5c0,0-5,10.1-12.4,10.1"/>
	<path class="st3" d="M484.8,299.6c0,0-3,13.9-21.7,17.8"/>
	<path class="st3" d="M492.6,320.3c0,0-8.8,14.1-27.8,12.4"/>
	<path class="st3" d="M491,346.7c0,0-16.5,10.8-29.1,4.9"/>
	<path class="st3" d="M453.6,286.5c0,0,4.3,9.1,9.1,6.4"/>
	<path class="st3" d="M437.8,300.4c0,0,5.8,12.3,24,10.1"/>
	<path class="st3" d="M436,318.8c0,0,16,9.7,29,7.1"/>
	<path class="st3" d="M444.5,338.5c0,0,12.7,10.1,18.6,7.8"/>
	<path class="st3" d="M441.5,346c0,0,3.4,10.6,0.1,12.6"/>
	<path class="st3" d="M430.3,362c0,0,6.5-6.4,4.7-7.7"/>
	<path class="st3" d="M418.3,308.1c0,0,5.7,27.2-1.7,34.5"/>
	<path class="st3" d="M394.4,372.7c0,0,25.9-16.6,28.1-26.4"/>
	<path class="st3" d="M379.4,361c0,0,24.3-11.3,30.9-22.2"/>
	<path class="st4" d="M395.7,299.4c0,0,11.8,19.6,4.4,33.4"/>
	<path class="st4" d="M371.4,343.1c0,0,18.1-7.4,21.7-14.3"/>
	<path class="st4" d="M375.3,305.4c0,0,6.1,11.1,3.2,15.9"/>
	<path class="st3" d="M437.7,371.2c0,0,16.3-2.2,18.1,2.1"/>
	<path class="st3" d="M463.7,404.5c0,0-0.8-17.8-11.1-24.7"/>
	<path class="st3" d="M419.1,378.4c0,0,17.1,2,23.1,13.1"/>
	<path class="st3" d="M447.7,417.4c0,0,2.6-13-9.9-22.3"/>
	<path class="st3" d="M406.8,394.1c0,0,14.2-0.8,21.8,6"/>
	<path class="st3" d="M426.3,419.8c0,0-1.4-10.3-5-12.4"/>
</g>
<path id="Path_177" class="st1" d="M525.8,459.5c0,0-21.9-22-33.6-3.4c0,0-3.1,2.4-1.6,6c0,0,1.1-1.1,3.1,1.3
	c0.7,0.9,1.5,1.7,2.4,2.3c1.2,0.9,2.7,1.4,4.2,1.5l0,0c0,0,8.9,3.1,20.9-5.3c0,0,3.9-0.6,4.4-1.3l-5.4-1.8c0,0-1.2,4-4.3,5.4
	c0,0,4.3-5.2,3.5-5.8c-0.2-0.1-2.9-0.8-2.9-0.8s-2.1,6.9-7,9c0,0,6-5.4,5.9-9.3l-4.2-0.8c0,0-1.8,7.5-7.3,9.9c0,0,6.1-5.9,6.4-10.1
	l-4.2-0.2c0,0-1.9,7.2-6.5,9.3c0,0,6.4-7.6,5.6-9.3c0,0-3.9,0-4.9,0.5c0,0-1.5,5.2-4.3,6.1c0,0,3.7-5.5,3.2-6c0,0-5.1,1.3-7.3,3.4
	c0,0,3.1-3.2,7-4.2c0,0-2.4-1.5-4.9-1.2c0,0,2.4-2,6.1,0.9c0,0,4-0.9,4.6-0.6c0,0-3.2-3.4-6.2-4.3c0,0,3.8-0.5,7.3,4.4l4.2,0.2
	c0,0-4-4.7-6.6-5.8c0,0,4,0.1,7.7,5.9l4.1,0.8c0,0-3.2-4.3-5.8-6.1c0,0,3.7,0.8,7,6.4l2.7,0.8c0,0-2.4-3.1-3.2-3.9
	c-0.8-0.8-0.6-1.1-0.6-1.1c2.1,1.3,3.8,3.2,4.9,5.4C520.2,457.8,525.6,459.9,525.8,459.5z"/>
<path id="Path_177_1_" class="st1" d="M669.5,319.3c0,0-60-14.5-60.5,29.4c0,0-2.8,7.2,3.4,11.9c0,0,0.7-3.1,6.6-1
	c2.1,0.7,4.3,1.3,6.5,1.5c3,0.3,6.1-0.4,8.7-1.8l0,0c0,0,18.4-4,30-30.6c0,0,6-5.2,6.1-6.8l-11,2.5c0,0,2.2,8-1.7,13.6
	c0,0,2.1-13.3,0-13.4c-0.4,0-5.7,1.6-5.7,1.6s3.7,13.9-2.5,22.5c0,0,4.6-15.5,0.4-21.9l-8,3c0,0,4.6,14.6-2.1,24.5
	c0,0,4.2-16.5,0.3-23.8l-7.4,3.9c0,0,4.3,14.3-1.3,22.6c0,0,3-19.4-0.3-21.6c0,0-6.6,4.1-7.9,6c0,0,2.8,10.3-0.9,14.8
	c0,0,0.6-13.2-0.9-13.5c0,0-7.2,7.5-8.9,13.3c0,0,1.8-8.6,7.7-14.4c0,0-5.7,0-9.5,2.9c0,0,2-5.9,11.3-4.8c0,0,5.8-5.6,7.2-5.8
	c0,0-9.1-2.4-15-1c0,0,5.9-4.8,17-0.2l7.4-4.2c0,0-11.8-3.8-17.3-2.9c0,0,6.8-4,19.2,2l7.8-2.9c0,0-10-4-16.2-4.4
	c0,0,7.1-2.4,18.5,3.6l5.4-1.3c0,0-7.3-2.9-9.5-3.5c-2.2-0.6-2.1-1.3-2.1-1.3c5,0,9.8,1.5,13.9,4.1
	C658.2,322.1,669.5,320,669.5,319.3z"/>
<path id="Path_177_2_" class="st1" d="M227.1,476.2c0,0,79.2,56.6,105.6-7.2c0,0,8.3-8.9,2-19.4c0,0-2.8,4.2-10.2-2.5
	c-2.7-2.4-5.6-4.4-8.7-6c-4.2-2.3-9-3.1-13.7-2.4l0,0c0,0-29.1-4.9-61.8,27.2c0,0-11.8,4.1-12.9,6.4l17.6,2.8c0,0,1.6-13,10.5-19
	c0,0-10.8,18.3-7.9,19.6c0.6,0.3,9.4,1.1,9.4,1.1s2.7-22.5,16.9-31.3c0,0-15.8,20-13.5,31.8l13.4,0.5c0,0,1.7-24,17.5-34.6
	c0,0-15.8,21.5-14.6,34.5l13.2-1.3c0,0,2.1-23.4,15.3-32.2c0,0-15.7,26.7-12.3,31.7c0,0,12.1-2,15-4c0,0,2-16.8,10-21.2
	c0,0-8.7,19-6.7,20.3c0,0,15-6.7,20.8-14.2c0,0-7.7,11.6-19.6,16.5c0,0,8.3,3.4,15.7,1.3c0,0-6.3,7.4-19.3,0.3
	c0,0-11.9,4.7-13.9,4.3c0,0,11.8,8.9,21.4,10.2c0,0-11.5,3.5-24.9-9.8l-13.3,1.6c0,0,15,12.5,23.5,14.4c0,0-12.3,1.8-26.8-14.3
	l-13.1-0.3c0,0,12.1,11.7,21.1,16c0,0-11.8-0.8-24.8-16.1l-8.8-1.2c0,0,8.9,8.4,11.8,10.7s2.5,3.1,2.5,3.1
	c-7.2-2.9-13.4-7.9-17.9-14.2C245.2,478.8,227.3,475.2,227.1,476.2z"/>
<path id="Path_178" class="st5" d="M373.8,489.2c0,0,26.3,43.7,52.4,18.6c0,0,5.9-2.6,5-8.9c0,0-2.3,1.5-4.4-3.3
	c-0.8-1.6-1.8-3.3-2.9-4.7c-1.6-1.9-3.7-3.3-6.1-4l0,0c0,0-13-8.4-35.5,0.2c0,0-6.5-0.5-7.5,0.4l7.9,5c0,0,3.5-5.9,9-7
	c0,0-9,6.5-7.9,7.8c0.2,0.3,4.3,2.5,4.3,2.5s6.1-10.3,14.7-11.6c0,0-11.8,6.3-13.1,12.4l6.4,3c0,0,5.9-11.2,15.6-13.1
	c0,0-12.1,7-14.2,13.6l6.7,2.1c0,0,5.9-10.8,14.1-12.3c0,0-13.1,9.6-12.5,12.7c0,0,6.2,1.5,8.1,1.2c0,0,4.5-7.7,9.2-8.1
	c0,0-8.1,7.3-7.5,8.3c0,0,8.6-0.1,12.9-2.5c-3.9,2.4-8.3,3.7-12.9,3.9c2,2,4.5,3.3,7.3,3.9c0,0-4.6,2.3-9.4-3.9c0,0-6.8-0.2-7.6-0.9
	c0,0,3.8,6.7,8.2,9.4c0,0-6.3-0.7-9.9-9.9l-6.7-1.9c0,0,4.6,9.2,8.3,11.9c0,0-6.3-1.7-10-12.5l-6.2-2.8c0,0,3.4,8.2,6.9,12.1
	c0,0-5.5-2.9-8.6-13l-4-2.4c0,0,2.6,6,3.4,7.6s0.5,2,0.5,2c-2.8-2.9-4.8-6.6-5.7-10.6C382,494.3,374.1,488.7,373.8,489.2z"/>
<path id="Path_178_1_" class="st5" d="M677.7,512.9c0,0-18.6-89.8-77.9-62.7c0,0-11.5,0.9-13.8,12.2c0,0,4.7-1.1,5.5,8.3
	c0.3,3.4,1.1,6.6,2.2,9.7c1.5,4.3,4.3,7.9,8,10.5l0,0c0,0,17,22.2,60.3,20.7c0,0,10.8,4.7,13,3.9l-10.5-13.2c0,0-9.4,8-19.4,6.5
	c0,0,19.2-5.7,18-8.5c-0.2-0.6-5.8-6.8-5.8-6.8s-16.4,13.9-31.8,10.9c0,0,23.8-3.7,29.7-13.4l-9.1-8.8c0,0-16.6,15.5-34.3,12.8
	c0,0,24.7-4.7,32.3-14.6l-10-7.5c0,0-16.4,14.8-31.3,12.4c0,0,28-8.5,28.8-14.1c0,0-9.6-6.4-13-6.8c0,0-12.2,10.5-20.5,8.3
	c0,0,18.2-7.6,17.6-9.7c0,0-14.7-4.9-23.4-3.5c8-1.7,16.3-1.3,24.2,1.1c-2.2-4.5-5.7-8.4-10.1-10.9c0,0,9.2-1.1,13.5,12.2
	c0,0,11.4,4.4,12.4,6c0,0-2.5-13.7-8.4-20.8c0,0,10.3,4.9,11,22.7l10.2,7.2c0,0-2.5-18.3-7.1-25.1c0,0,9.7,6.6,9.5,27.1l8.9,8.5
	c0,0-0.8-15.9-4.4-24.5c0,0,7.6,8.1,6.9,27.1l5.3,6.5c0,0-0.8-11.6-1.4-14.9c-0.5-3.4,0.3-3.7,0.3-3.7c3,6.6,4.2,14,3.3,21.4
	C666.7,499.3,676.8,513.4,677.7,512.9z"/>
</svg>
