<svg id="Layer_1" data-name="Layer 1" xmlns="http://www.w3.org/2000/svg" viewBox="0 0 350.7 57.93"><defs><style>.cls-1{fill:#1f2937;}.cls-2{fill:#1bb680;}.cls-3{fill:#1cb67f;}.cls-4{fill:#049669;}.cls-5{fill:#067857;}</style></defs><title>logo-primagreen-v2</title><g id="V2"><path class="cls-1" d="M67.27,73.32a18.06,18.06,0,0,1-1.63,7.91,11.92,11.92,0,0,1-11.23,7.09,11.55,11.55,0,0,1-5.13-1.13,9.06,9.06,0,0,1-3.65-3V94.26a4.18,4.18,0,0,1-1.43,3.32,5.46,5.46,0,0,1-3.73,1.25,5.65,5.65,0,0,1-3.92-1.34,4.39,4.39,0,0,1-1.49-3.41V80.93a33.4,33.4,0,0,0,6.29-3.76,40.25,40.25,0,0,0,4.12-3.53,8,8,0,0,0,1.46,4.93,5.15,5.15,0,0,0,4.27,1.87,5,5,0,0,0,4.18-1.84,8.4,8.4,0,0,0,1.45-5.28,9,9,0,0,0-1.47-5.56,4.87,4.87,0,0,0-3-1.82A19.49,19.49,0,0,0,55.48,58a11.61,11.61,0,0,1,5.6,1.88,12.77,12.77,0,0,1,4.56,5.42A18.78,18.78,0,0,1,67.27,73.32Z" transform="translate(-3.91 -41.07)"/><path class="cls-1" d="M93.85,59A4.19,4.19,0,0,1,95,62.22a4.64,4.64,0,0,1-1.1,3.44A6.64,6.64,0,0,1,90,67l-1.78.17A6.38,6.38,0,0,0,84,69.07,6.22,6.22,0,0,0,82.7,73.2V83.34A4.4,4.4,0,0,1,81.19,87a6.48,6.48,0,0,1-7.54,0,4.43,4.43,0,0,1-1.51-3.65V62.82a4.29,4.29,0,0,1,1.51-3.5,5.57,5.57,0,0,1,3.65-1.25,5.13,5.13,0,0,1,3.53,1.19,4.22,4.22,0,0,1,1.34,3.32v1.13a7.92,7.92,0,0,1,3.11-4,9,9,0,0,1,4.54-1.54l.83-.06A4,4,0,0,1,93.85,59Z" transform="translate(-3.91 -41.07)"/><path class="cls-1" d="M98.51,87A4.41,4.41,0,0,1,97,83.34V62.93a4.38,4.38,0,0,1,1.52-3.64,6.42,6.42,0,0,1,7.53,0,4.38,4.38,0,0,1,1.51,3.64V83.34A4.4,4.4,0,0,1,106,87a6.46,6.46,0,0,1-7.53,0Z" transform="translate(-3.91 -41.07)"/><path class="cls-1" d="M158.33,60.83q2.61,2.88,2.61,9.7V83.34A4.43,4.43,0,0,1,159.43,87a6.48,6.48,0,0,1-7.54,0,4.4,4.4,0,0,1-1.51-3.65v-13a5.11,5.11,0,0,0-.83-3.32,3.07,3.07,0,0,0-2.43-1,4.1,4.1,0,0,0-3.32,1.48,6.2,6.2,0,0,0-1.25,4.1V83.34A4.47,4.47,0,0,1,141.07,87a6.52,6.52,0,0,1-7.57,0A4.43,4.43,0,0,1,132,83.34v-13a5.11,5.11,0,0,0-.83-3.32,3.06,3.06,0,0,0-2.43-1,4,4,0,0,0-3.29,1.48,6.3,6.3,0,0,0-1.22,4.1V83.34A4.4,4.4,0,0,1,122.71,87a6.48,6.48,0,0,1-7.54,0,4.43,4.43,0,0,1-1.51-3.65V62.82a4.2,4.2,0,0,1,1.57-3.53A6,6,0,0,1,119,58.07a5.46,5.46,0,0,1,3.47,1.1,4,4,0,0,1,1.45,3.17q2.91-4.38,8.9-4.39,6.35,0,8.48,5.16a10.89,10.89,0,0,1,4-3.76,11.33,11.33,0,0,1,5.63-1.4Q155.73,58,158.33,60.83Z" transform="translate(-3.91 -41.07)"/><path class="cls-1" d="M190.45,61.18q3.23,3.24,3.23,9.82V83.4a4.65,4.65,0,0,1-1.33,3.53,5.16,5.16,0,0,1-3.71,1.27A4.93,4.93,0,0,1,185.23,87a4.41,4.41,0,0,1-1.45-3.21A6.61,6.61,0,0,1,181,87.14a8.9,8.9,0,0,1-4.69,1.18,12,12,0,0,1-5.46-1.21A9.51,9.51,0,0,1,167,83.73a8.88,8.88,0,0,1-1.4-4.9,7.34,7.34,0,0,1,1.64-5,9.47,9.47,0,0,1,5.19-2.7,44.26,44.26,0,0,1,9.61-.83h1.6v-.71a4.06,4.06,0,0,0-.95-3,4.56,4.56,0,0,0-3.21-.92,23.73,23.73,0,0,0-7.11,1.66,7.26,7.26,0,0,1-2.32.48,2.93,2.93,0,0,1-2.37-1.07,4.22,4.22,0,0,1-.89-2.79,3.91,3.91,0,0,1,.53-2.13,4.68,4.68,0,0,1,1.72-1.49,21.13,21.13,0,0,1,5.22-1.72,30.75,30.75,0,0,1,6.17-.65Q187.22,58,190.45,61.18Zm-8.16,18.57a5.57,5.57,0,0,0,1.37-3.88v-.72h-.95a15,15,0,0,0-5.4.69,2.33,2.33,0,0,0-1.6,2.28,3.07,3.07,0,0,0,.86,2.25,2.92,2.92,0,0,0,2.22.89A4.49,4.49,0,0,0,182.29,79.75Z" transform="translate(-3.91 -41.07)"/><path class="cls-2" d="M229.33,59.4a4.63,4.63,0,0,1,1.42,3.53V84.29q0,7.23-4.36,11T213.61,99a31.28,31.28,0,0,1-6.17-.59,17.16,17.16,0,0,1-4.92-1.72,4.69,4.69,0,0,1-1.69-1.55,3.75,3.75,0,0,1-.62-2.13,4.27,4.27,0,0,1,.86-2.79,2.72,2.72,0,0,1,2.22-1.07,15.66,15.66,0,0,1,3.86.89c1.22.4,2.31.7,3.26.92a12.83,12.83,0,0,0,2.9.33c2.42,0,4.19-.51,5.31-1.51s1.69-2.6,1.69-4.78V82.75a9,9,0,0,1-3.73,3.11A12.14,12.14,0,0,1,211.3,87a13,13,0,0,1-6.77-1.78,12.22,12.22,0,0,1-4.62-5.07,16.71,16.71,0,0,1-1.66-7.63,16.88,16.88,0,0,1,1.66-7.65,12.39,12.39,0,0,1,4.62-5.13A12.82,12.82,0,0,1,211.3,58a12.08,12.08,0,0,1,5.34,1.19,8.89,8.89,0,0,1,3.73,3.26,4.25,4.25,0,0,1,1.52-3.17,5.5,5.5,0,0,1,3.64-1.16A5.36,5.36,0,0,1,229.33,59.4Zm-10.5,18a7,7,0,0,0,1.54-4.87,7.27,7.27,0,0,0-1.54-4.92,6.12,6.12,0,0,0-8.6,0,7.25,7.25,0,0,0-1.54,5,7,7,0,0,0,1.57,4.84,5.44,5.44,0,0,0,4.24,1.75A5.5,5.5,0,0,0,218.83,77.41Z" transform="translate(-3.91 -41.07)"/><path class="cls-2" d="M258.63,59a4.19,4.19,0,0,1,1.19,3.23,4.64,4.64,0,0,1-1.1,3.44A6.61,6.61,0,0,1,254.78,67L253,67.2a6.35,6.35,0,0,0-4.24,1.87,6.22,6.22,0,0,0-1.28,4.13V83.34A4.4,4.4,0,0,1,246,87a6.48,6.48,0,0,1-7.54,0,4.43,4.43,0,0,1-1.51-3.65V62.82a4.29,4.29,0,0,1,1.51-3.5,5.57,5.57,0,0,1,3.65-1.25,5.11,5.11,0,0,1,3.53,1.19A4.22,4.22,0,0,1,247,62.58v1.13a7.92,7.92,0,0,1,3.11-4,9,9,0,0,1,4.54-1.54l.83-.06A4,4,0,0,1,258.63,59Z" transform="translate(-3.91 -41.07)"/><path class="cls-2" d="M287.14,79.54a4.34,4.34,0,0,1,.86,2.79A3.94,3.94,0,0,1,285.68,86a22.79,22.79,0,0,1-4.77,1.69,21.49,21.49,0,0,1-5.07.68,18.45,18.45,0,0,1-8.49-1.84,13,13,0,0,1-5.57-5.28,16,16,0,0,1-2-8.06,16.25,16.25,0,0,1,1.87-7.86,13.31,13.31,0,0,1,5.22-5.4A14.82,14.82,0,0,1,274.47,58a14.09,14.09,0,0,1,7.18,1.78,12.15,12.15,0,0,1,4.77,5,16.4,16.4,0,0,1,1.69,7.65,3.14,3.14,0,0,1-.62,2.11,2.21,2.21,0,0,1-1.81.74H270a6.53,6.53,0,0,0,1.84,4.1,6.23,6.23,0,0,0,4.21,1.24,10.64,10.64,0,0,0,2.73-.33,26.23,26.23,0,0,0,2.79-.91c.59-.24,1.18-.45,1.75-.63a5.25,5.25,0,0,1,1.57-.26A2.74,2.74,0,0,1,287.14,79.54ZM271.45,66.4A6.44,6.44,0,0,0,270,70.29h9.32q-.36-5.22-4.51-5.22A4.35,4.35,0,0,0,271.45,66.4Z" transform="translate(-3.91 -41.07)"/><path class="cls-2" d="M318.87,79.54a4.34,4.34,0,0,1,.86,2.79A3.93,3.93,0,0,1,317.42,86a23.1,23.1,0,0,1-4.78,1.69,21.49,21.49,0,0,1-5.07.68,18.43,18.43,0,0,1-8.48-1.84,13,13,0,0,1-5.58-5.28,16.06,16.06,0,0,1-2-8.06,16.36,16.36,0,0,1,1.87-7.86,13.44,13.44,0,0,1,5.22-5.4A14.88,14.88,0,0,1,306.21,58a14,14,0,0,1,7.17,1.78,12.17,12.17,0,0,1,4.78,5,16.53,16.53,0,0,1,1.69,7.65,3.2,3.2,0,0,1-.62,2.11,2.22,2.22,0,0,1-1.81.74H301.76a6.53,6.53,0,0,0,1.83,4.1,6.25,6.25,0,0,0,4.22,1.24,10.62,10.62,0,0,0,2.72-.33,25.51,25.51,0,0,0,2.79-.91c.6-.24,1.18-.45,1.75-.63a5.31,5.31,0,0,1,1.58-.26A2.72,2.72,0,0,1,318.87,79.54ZM303.18,66.4a6.37,6.37,0,0,0-1.48,3.89H311q-.36-5.22-4.51-5.22A4.36,4.36,0,0,0,303.18,66.4Z" transform="translate(-3.91 -41.07)"/><path class="cls-2" d="M352.06,61.07c1.7,2.07,2.55,5.23,2.55,9.46V83.34a4.6,4.6,0,0,1-1.43,3.56,6.37,6.37,0,0,1-7.71,0,4.59,4.59,0,0,1-1.42-3.56V71a6.28,6.28,0,0,0-.92-3.8A3.27,3.27,0,0,0,340.37,66a4.88,4.88,0,0,0-3.77,1.51,5.76,5.76,0,0,0-1.39,4.07V83.34a4.59,4.59,0,0,1-1.42,3.56,6.37,6.37,0,0,1-7.71,0,4.6,4.6,0,0,1-1.43-3.56V62.82a4.44,4.44,0,0,1,1.48-3.42A5.6,5.6,0,0,1,330,58.07a5.06,5.06,0,0,1,3.59,1.25,4.24,4.24,0,0,1,1.33,3.26,10.17,10.17,0,0,1,4-3.44,12.16,12.16,0,0,1,5.4-1.19Q349.51,58,352.06,61.07Z" transform="translate(-3.91 -41.07)"/><path class="cls-3" d="M44.49,41.41a1.46,1.46,0,0,0-1.87,0c-.31.25-7.45,6.24-7.45,13.89A13.75,13.75,0,0,0,36,60a22.58,22.58,0,0,0-11.62-3.62c-4.62,0-9.58,1.89-14.34,5.46a37.38,37.38,0,0,0-5.83,5.4,1.49,1.49,0,0,0,0,1.87,37.94,37.94,0,0,0,5.83,5.4C14.83,78.08,19.79,80,24.41,80S34,78.08,38.74,74.51a38.28,38.28,0,0,0,4.18-3.63,22.63,22.63,0,0,0,1.61-1.73c.15-.12.6-.51,1.21-1.12,2.13-2.13,6.2-7,6.2-12.73C51.94,47.65,44.79,41.66,44.49,41.41Z" transform="translate(-3.91 -41.07)"/><path class="cls-4" d="M43.88,53.5A1.47,1.47,0,0,0,42.41,55V66.38H24.73a1.47,1.47,0,0,0,0,2.94h19a1.49,1.49,0,0,0,1-.43l.06-.06.06-.06a1.49,1.49,0,0,0,.43-1V55A1.47,1.47,0,0,0,43.88,53.5Z" transform="translate(-3.91 -41.07)"/><path class="cls-4" d="M42.62,41.41c-.31.25-7.45,6.24-7.45,13.89A13.75,13.75,0,0,0,36,60l-.15-.09,9,9c.22-.2.52-.48.89-.85,2.13-2.13,6.2-7,6.2-12.73,0-7.65-7.15-13.64-7.45-13.89A1.46,1.46,0,0,0,42.62,41.41Z" transform="translate(-3.91 -41.07)"/><path class="cls-5" d="M42.41,55V66.38h-.06l2.48,2.48,0,0,.06-.06a1.49,1.49,0,0,0,.43-1V55a1.47,1.47,0,0,0-2.94,0Z" transform="translate(-3.91 -41.07)"/></g></svg>