<svg id="Layer_1" data-name="Layer 1" xmlns="http://www.w3.org/2000/svg" viewBox="0 0 360 144"><defs><style>.cls-1{fill:#b0dcc6;}.cls-2{fill:#56bf92;}.cls-3{fill:#1bb680;}.cls-4{fill:#049669;}.cls-5{fill:#8fc961;}.cls-6{fill:#1f2937;}</style></defs><title>logo</title><path class="cls-1" d="M86.28,50.36S74.41,42,78.06,27.42,96.77,8,96.77,8s-1.86,3.76,1.84,10.83c5.15,9.82,6.19,25.22-12.33,31.56Z"/><path class="cls-2" d="M98.61,18.8C94.91,11.73,96.77,8,96.77,8a27.39,27.39,0,0,0-4.13,1.87c-.27,1.64-.26,4.88,2.2,9.57,4.84,9.26,6,23.45-9.3,30.37.46.38.74.58.74.58C104.8,44,103.76,28.62,98.61,18.8Z"/><path class="cls-3" d="M89.12,20.92a47,47,0,0,1,8.57-4.07C95.25,11,96.77,8,96.77,8s-4.4,4.19-7.65,13Z"/><path class="cls-4" d="M92.7,13.41a18.67,18.67,0,0,0,1.55,4.81,36.78,36.78,0,0,1,3.44-1.37c-1.11-2.63-2.07-6.09-.92-8.88A28,28,0,0,0,92.7,13.41Z"/><path class="cls-3" d="M86.47,31.12a52.88,52.88,0,0,1,2.65-10.2,30.33,30.33,0,0,1-2-7.36,28,28,0,0,0-6.76,8A28.61,28.61,0,0,0,86.47,31.12Z"/><path class="cls-3" d="M101,25.06c-9.61,2.18-14.57,6.06-14.57,6.06a64,64,0,0,0-.77,10.6c0,2.11,1,.05,4.19-1.75,2.7-1.51,7.28-2.58,11.26-3.44A22.08,22.08,0,0,0,101,25.06Z"/><path class="cls-4" d="M101,25.06c-1.32.3-2.55.63-3.69,1a23.36,23.36,0,0,1-.08,11.45l3.88-1A22.08,22.08,0,0,0,101,25.06Z"/><path class="cls-5" d="M77.53,35.5c1.2,9.56,8.75,14.86,8.75,14.86a74.29,74.29,0,0,1-.58-8.64,34.38,34.38,0,0,1-8.17-6.22Z"/><path class="cls-1" d="M54.48,29S52.7,47.83,66.84,52.56C76.49,55.79,84.22,51,90,57.24c0,0,4.68-20.85-10.76-26.4-11.2-4-18.73,3-24.78-1.82Z"/><path class="cls-5" d="M62.45,36.41a8.85,8.85,0,0,1-1.4-5.65A8.78,8.78,0,0,1,54.48,29S55.14,33.11,62.45,36.41Z"/><path class="cls-3" d="M62.45,36.41a8.85,8.85,0,0,1-1.4-5.65A8.78,8.78,0,0,1,54.48,29S55.14,33.11,62.45,36.41Z"/><path class="cls-3" d="M74.34,39.76h0a19.59,19.59,0,0,1,7.84,4.41c2.09,1.89-3.42-5.59-1.74-12.86-.38-.16-.77-.32-1.18-.47a22.09,22.09,0,0,0-8.53-1.28,18.75,18.75,0,0,0,3.61,10.2Z"/><path class="cls-3" d="M74.34,39.76a18,18,0,0,0-2-.47,41.91,41.91,0,0,1-9.87-2.88c-2.46-1.11-4-.61-7.17,2.3a23.1,23.1,0,0,0,3,7.17,24.49,24.49,0,0,1,16.1-6.12Z"/><path class="cls-3" d="M87,50.2a29,29,0,0,1,3,7S92.39,46.7,88.2,38.61C85.35,44.06,87,50.2,87,50.2Z"/><path class="cls-3" d="M87,50.2a25.74,25.74,0,0,0-4.84-6A28,28,0,0,0,63,50.74a16.39,16.39,0,0,0,3.81,1.82,23,23,0,0,0,3.69.9C80.31,46.87,87,50.2,87,50.2Z"/><path class="cls-6" d="M100.89,22.17a.72.72,0,0,0-1.34.54,16.19,16.19,0,0,1,.62,1.82,44.07,44.07,0,0,0-12.7,5,53,53,0,0,1,2.23-8.17,45.92,45.92,0,0,1,7.6-3.66l.49,1a.72.72,0,0,0,1.28-.64,15.73,15.73,0,0,1-2-8.45,4.6,4.6,0,0,1,.34-1.41.73.73,0,0,0-.73-1,7.78,7.78,0,0,0-2.28.91c-8.7,4-16,11.55-17.48,21.24-4.64-1.08-8.57-.44-12.11.14-3.33.54-7,1.23-9.9-1.08a.72.72,0,0,0-1.16.5,33,33,0,0,0,1.53,12.37.71.71,0,0,0,1.35-.46c-.21-.64-.4-1.27-.56-1.9a8.76,8.76,0,0,1,6.18-1.86,39.74,39.74,0,0,0,7.4,2.38A25.88,25.88,0,0,0,58.42,44.8c-.11-.18-.21-.36-.31-.54a.72.72,0,0,0-1.26.68,17.36,17.36,0,0,0,9.77,8.3c4.1,1.37,8.32,1.3,12.59,1.27,3.81,0,7.54.28,10.29,3.22a.72.72,0,0,0,1.22-.34A35.18,35.18,0,0,0,91.38,49c7.36-3.86,11.91-11,11.08-19.42a24.83,24.83,0,0,0-1.57-7.36Zm-15,25a25,25,0,0,0-3.1-3.43A18,18,0,0,1,81,32.36a15.14,15.14,0,0,1,6.44,6.26A17.08,17.08,0,0,0,85.85,47.15Zm-11.08-8a18.43,18.43,0,0,1-3.27-8.88,21.25,21.25,0,0,1,8.12,1.48,19.28,19.28,0,0,0,.72,10.06,20.11,20.11,0,0,0-5.57-2.66ZM90.54,19.27a40.14,40.14,0,0,1,5.06-8.85,16.06,16.06,0,0,0,1.15,6A46.32,46.32,0,0,0,90.54,19.27Zm.26-7.51a32.41,32.41,0,0,1,3.44-1.93,41.36,41.36,0,0,0-5.1,9.07,28.12,28.12,0,0,1-1.28-5A33.24,33.24,0,0,1,90.8,11.76Zm-5.1,4c.29-.28.59-.55.89-.82a34.73,34.73,0,0,0,1.76,6A54.51,54.51,0,0,0,86,29.61a29,29,0,0,1-4.86-8,26.3,26.3,0,0,1,4.56-5.87Zm-5.41,7.51a28.14,28.14,0,0,0,5.42,8.1c-.12.76-.22,1.54-.31,2.32a17.78,17.78,0,0,0-7.08-3.92,23.56,23.56,0,0,1,2-6.5ZM60.86,34.8a14,14,0,0,1-4.69-3.94,10,10,0,0,0,4.11.66,9.08,9.08,0,0,0,.58,3.28Zm-5.72-2.91a15.29,15.29,0,0,0,4.57,3.91,9.87,9.87,0,0,0-4,1.63A33.18,33.18,0,0,1,55.14,31.89Zm7.8,4a8.29,8.29,0,0,1-1.22-4.41c2.79-.28,5.54-.94,8.35-1.12a19.94,19.94,0,0,0,2.65,8.33A45.39,45.39,0,0,1,62.94,35.84ZM59.2,46a24.66,24.66,0,0,1,10.07-5,20.57,20.57,0,0,1,5-.58,18.73,18.73,0,0,1,5.91,3,26.89,26.89,0,0,0-4.21.48A29.8,29.8,0,0,0,63,49.84,15.37,15.37,0,0,1,59.2,46Zm5.09,4.64a28.48,28.48,0,0,1,11.86-5.34,23.54,23.54,0,0,1,5.73-.44,23.94,23.94,0,0,1,3.49,4.07,15.2,15.2,0,0,0-2.93-.3c-2.7,0-7,.7-12.07,4.06a20.92,20.92,0,0,1-3.3-.82,16.18,16.18,0,0,1-2.78-1.23Zm13.76,2.44a52.63,52.63,0,0,1-5.42-.1,19.68,19.68,0,0,1,9.71-2.91,11.25,11.25,0,0,1,4.17.69,29.91,29.91,0,0,1,2,4.27c-3.14-2.07-6.73-2-10.5-1.95Zm11.67-6.91a34.66,34.66,0,0,1,0,8,31.83,31.83,0,0,0-2.07-4.27,17.6,17.6,0,0,1,.52-9.59,23,23,0,0,1,1.51,5.84Zm10-7.64a20.43,20.43,0,0,1-8.41,8.83,26.52,26.52,0,0,0-1.4-6.66,78.09,78.09,0,0,1,10.26-3.22,9.75,9.75,0,0,1-.45,1ZM101,29.65v0a18,18,0,0,1-.39,6.24,79.36,79.36,0,0,0-11.28,3.46,17.9,17.9,0,0,0-2.66-4.31c.11-1.19.25-2.38.43-3.54a28.5,28.5,0,0,1,3.39-2,46.49,46.49,0,0,1,10-3.6,29.18,29.18,0,0,1,.52,3.73Z"/><path class="cls-6" d="M32.65,61.7a14,14,0,0,1,5,6,20.48,20.48,0,0,1,1.79,8.79,19.77,19.77,0,0,1-1.79,8.68A13.08,13.08,0,0,1,25.33,92.9a12.73,12.73,0,0,1-5.63-1.24,9.85,9.85,0,0,1-4-3.32V99.41a4.58,4.58,0,0,1-1.57,3.64A6,6,0,0,1,10,104.42,6.18,6.18,0,0,1,5.74,103a4.81,4.81,0,0,1-1.63-3.74V65.05a5.12,5.12,0,0,1,1.53-3.87,5.76,5.76,0,0,1,4.14-1.46,6,6,0,0,1,4,1.3,4.93,4.93,0,0,1,1.72,3.45,9.39,9.39,0,0,1,4-3.58,13,13,0,0,1,5.83-1.3A13,13,0,0,1,32.65,61.7ZM26.4,82.23A9.2,9.2,0,0,0,28,76.44a9.86,9.86,0,0,0-1.62-6.09,5.52,5.52,0,0,0-4.62-2.11,5.5,5.5,0,0,0-4.62,2.08,9.54,9.54,0,0,0-1.63,6,9.26,9.26,0,0,0,1.63,5.89,5.63,5.63,0,0,0,4.68,2A5.51,5.51,0,0,0,26.4,82.23Z"/><path class="cls-6" d="M68.59,60.73a4.57,4.57,0,0,1,1.3,3.54A5.08,5.08,0,0,1,68.69,68c-.8.79-2.24,1.29-4.33,1.5l-2,.2a6.89,6.89,0,0,0-4.65,2.05,6.79,6.79,0,0,0-1.4,4.52V87.43a4.83,4.83,0,0,1-1.66,4,7.08,7.08,0,0,1-8.26,0,4.83,4.83,0,0,1-1.66-4V64.92a4.68,4.68,0,0,1,1.66-3.84,6.08,6.08,0,0,1,4-1.36A5.61,5.61,0,0,1,54.31,61a4.6,4.6,0,0,1,1.46,3.64V65.9a8.73,8.73,0,0,1,3.42-4.43,9.87,9.87,0,0,1,5-1.69l.91-.06A4.34,4.34,0,0,1,68.59,60.73Z"/><path class="cls-6" d="M73.7,91.44a4.83,4.83,0,0,1-1.66-4V65.05a4.81,4.81,0,0,1,1.66-4,7.08,7.08,0,0,1,8.26,0,4.81,4.81,0,0,1,1.66,4V87.43a4.83,4.83,0,0,1-1.66,4,7.08,7.08,0,0,1-8.26,0Z"/><path class="cls-6" d="M139.32,62.74q2.85,3.16,2.86,10.64V87.43a4.83,4.83,0,0,1-1.66,4,7.08,7.08,0,0,1-8.26,0,4.83,4.83,0,0,1-1.66-4V73.12a5.62,5.62,0,0,0-.91-3.64,3.35,3.35,0,0,0-2.67-1,4.52,4.52,0,0,0-3.64,1.62A6.73,6.73,0,0,0,122,74.55V87.43a4.87,4.87,0,0,1-1.63,4,7.12,7.12,0,0,1-8.29,0,4.83,4.83,0,0,1-1.66-4V73.12a5.62,5.62,0,0,0-.91-3.64,3.35,3.35,0,0,0-2.67-1,4.43,4.43,0,0,0-3.61,1.62,6.89,6.89,0,0,0-1.34,4.49V87.43a4.86,4.86,0,0,1-1.65,4,7.09,7.09,0,0,1-8.27,0,4.86,4.86,0,0,1-1.66-4V64.92a4.6,4.6,0,0,1,1.73-3.87,6.53,6.53,0,0,1,4.13-1.33,6,6,0,0,1,3.8,1.2,4.32,4.32,0,0,1,1.6,3.48q3.18-4.82,9.76-4.81,7,0,9.3,5.66A11.92,11.92,0,0,1,125,61.12a12.42,12.42,0,0,1,6.18-1.53Q136.46,59.59,139.32,62.74Z"/><path class="cls-6" d="M174.55,63.13q3.54,3.56,3.54,10.77V87.5a5.11,5.11,0,0,1-1.46,3.87,5.67,5.67,0,0,1-4.07,1.4,5.41,5.41,0,0,1-3.74-1.3A4.87,4.87,0,0,1,167.23,88a7.22,7.22,0,0,1-3.06,3.65A9.81,9.81,0,0,1,159,92.9a13.35,13.35,0,0,1-6-1.33,10.42,10.42,0,0,1-4.19-3.71,9.71,9.71,0,0,1-1.53-5.37,8,8,0,0,1,1.79-5.5,10.55,10.55,0,0,1,5.69-3,48.2,48.2,0,0,1,10.54-.91h1.76v-.78a4.46,4.46,0,0,0-1-3.29,5,5,0,0,0-3.52-1,25.66,25.66,0,0,0-7.8,1.83,8.23,8.23,0,0,1-2.54.52,3.24,3.24,0,0,1-2.61-1.17,4.62,4.62,0,0,1-1-3.06,4.17,4.17,0,0,1,.59-2.34,5,5,0,0,1,1.88-1.63,22.88,22.88,0,0,1,5.73-1.89,33.7,33.7,0,0,1,6.76-.71Q171,59.59,174.55,63.13Zm-9,20.37a6.12,6.12,0,0,0,1.5-4.26v-.78h-1a16.79,16.79,0,0,0-5.92.74,2.57,2.57,0,0,0-1.76,2.51,3.4,3.4,0,0,0,.94,2.47,3.25,3.25,0,0,0,2.44,1A5,5,0,0,0,165.6,83.5Z"/><path class="cls-3" d="M217.2,61.18a5.07,5.07,0,0,1,1.56,3.87V88.47q0,7.95-4.79,12t-14,4.1a34,34,0,0,1-6.76-.65,18.36,18.36,0,0,1-5.4-1.89,5.15,5.15,0,0,1-1.86-1.69,4.19,4.19,0,0,1-.68-2.34,4.72,4.72,0,0,1,.94-3.06,3,3,0,0,1,2.44-1.17,17.07,17.07,0,0,1,4.23,1c1.35.43,2.54.77,3.58,1a14.12,14.12,0,0,0,3.19.36q4,0,5.82-1.66c1.24-1.1,1.86-2.85,1.86-5.23V86.78a10,10,0,0,1-4.1,3.42,13.4,13.4,0,0,1-5.79,1.27,14.15,14.15,0,0,1-7.42-2A13.39,13.39,0,0,1,184.92,84a18.35,18.35,0,0,1-1.82-8.36,18.59,18.59,0,0,1,1.82-8.39A13.5,13.5,0,0,1,190,61.57a14,14,0,0,1,7.42-2,13.14,13.14,0,0,1,5.85,1.3,9.72,9.72,0,0,1,4.1,3.58A4.65,4.65,0,0,1,209,61a6,6,0,0,1,4-1.27A5.89,5.89,0,0,1,217.2,61.18ZM205.68,80.93a7.72,7.72,0,0,0,1.69-5.34,8,8,0,0,0-1.69-5.4,6.72,6.72,0,0,0-9.44,0,8,8,0,0,0-1.69,5.43,7.66,7.66,0,0,0,1.73,5.31,6,6,0,0,0,4.65,1.91A6,6,0,0,0,205.68,80.93Z"/><path class="cls-3" d="M249.34,60.73a4.61,4.61,0,0,1,1.3,3.54A5,5,0,0,1,249.43,68q-1.2,1.18-4.32,1.5l-2,.2a6.94,6.94,0,0,0-4.66,2.05,6.79,6.79,0,0,0-1.4,4.52V87.43a4.86,4.86,0,0,1-1.65,4,7.09,7.09,0,0,1-8.27,0,4.86,4.86,0,0,1-1.66-4V64.92a4.71,4.71,0,0,1,1.66-3.84,6.1,6.1,0,0,1,4-1.36,5.58,5.58,0,0,1,3.87,1.3,4.61,4.61,0,0,1,1.47,3.64V65.9a8.66,8.66,0,0,1,3.41-4.43,9.93,9.93,0,0,1,5-1.69l.91-.06A4.35,4.35,0,0,1,249.34,60.73Z"/><path class="cls-3" d="M280.6,83.27a4.72,4.72,0,0,1,.94,3.06,4.31,4.31,0,0,1-2.53,4,25.34,25.34,0,0,1-5.24,1.85,23.26,23.26,0,0,1-5.56.75,20.24,20.24,0,0,1-9.31-2,14.25,14.25,0,0,1-6.11-5.79,17.48,17.48,0,0,1-2.15-8.85,17.85,17.85,0,0,1,2.05-8.62,14.75,14.75,0,0,1,5.72-5.92,16.34,16.34,0,0,1,8.3-2.11,15.47,15.47,0,0,1,7.87,1.95,13.26,13.26,0,0,1,5.24,5.53,18.08,18.08,0,0,1,1.85,8.39,3.46,3.46,0,0,1-.68,2.31,2.43,2.43,0,0,1-2,.82H261.83a7.1,7.1,0,0,0,2,4.49,6.82,6.82,0,0,0,4.61,1.36,11.75,11.75,0,0,0,3-.36,28.28,28.28,0,0,0,3.06-1c.65-.27,1.29-.49,1.92-.69a6,6,0,0,1,1.72-.29A3,3,0,0,1,280.6,83.27ZM263.39,68.86a7.07,7.07,0,0,0-1.63,4.26H272q-.39-5.73-5-5.73A4.72,4.72,0,0,0,263.39,68.86Z"/><path class="cls-3" d="M315.41,83.27a4.72,4.72,0,0,1,.94,3.06,4.31,4.31,0,0,1-2.54,4,25.24,25.24,0,0,1-5.23,1.85,23.34,23.34,0,0,1-5.57.75,20.2,20.2,0,0,1-9.3-2,14.27,14.27,0,0,1-6.12-5.79,17.58,17.58,0,0,1-2.14-8.85,17.85,17.85,0,0,1,2.05-8.62,14.75,14.75,0,0,1,5.72-5.92,16.34,16.34,0,0,1,8.3-2.11,15.49,15.49,0,0,1,7.87,1.95,13.32,13.32,0,0,1,5.24,5.53,18.08,18.08,0,0,1,1.85,8.39,3.52,3.52,0,0,1-.68,2.31,2.44,2.44,0,0,1-2,.82H296.64a7.15,7.15,0,0,0,2,4.49,6.83,6.83,0,0,0,4.62,1.36,11.8,11.8,0,0,0,3-.36,27.48,27.48,0,0,0,3.05-1c.65-.27,1.29-.49,1.92-.69A6.07,6.07,0,0,1,313,82.1,3,3,0,0,1,315.41,83.27ZM298.2,68.86a7,7,0,0,0-1.63,4.26h10.22q-.39-5.73-5-5.73A4.72,4.72,0,0,0,298.2,68.86Z"/><path class="cls-3" d="M351.81,63q2.79,3.42,2.8,10.38V87.43a5.06,5.06,0,0,1-1.56,3.91,7,7,0,0,1-8.46,0A5.06,5.06,0,0,1,343,87.43V73.9a6.82,6.82,0,0,0-1-4.16,3.59,3.59,0,0,0-3-1.3,5.36,5.36,0,0,0-4.13,1.65,6.34,6.34,0,0,0-1.53,4.46V87.43a5.06,5.06,0,0,1-1.56,3.91,7,7,0,0,1-8.46,0,5.06,5.06,0,0,1-1.56-3.91V64.92a4.79,4.79,0,0,1,1.63-3.74,6.09,6.09,0,0,1,4.23-1.46,5.53,5.53,0,0,1,3.93,1.36A4.67,4.67,0,0,1,333,64.66a11,11,0,0,1,4.36-3.77,13.26,13.26,0,0,1,5.92-1.3Q349,59.59,351.81,63Z"/></svg>