<svg id="Layer_1" data-name="Layer 1" xmlns="http://www.w3.org/2000/svg" viewBox="0 0 360 144"><defs><style>.cls-1{fill:#1f2937;}.cls-2{fill:#1bb680;}.cls-3{fill:#1cb67f;}.cls-4{fill:#049669;}.cls-5{fill:#067857;}</style></defs><title>logo-01</title><path class="cls-1" d="M32.65,61.7a14,14,0,0,1,5,6,20.48,20.48,0,0,1,1.79,8.79,19.77,19.77,0,0,1-1.79,8.68A13.08,13.08,0,0,1,25.33,92.9a12.73,12.73,0,0,1-5.63-1.24,9.85,9.85,0,0,1-4-3.32V99.41a4.58,4.58,0,0,1-1.57,3.64A6,6,0,0,1,10,104.42,6.18,6.18,0,0,1,5.74,103a4.81,4.81,0,0,1-1.63-3.74V65.05a5.12,5.12,0,0,1,1.53-3.87,5.76,5.76,0,0,1,4.14-1.46,6,6,0,0,1,4,1.3,4.93,4.93,0,0,1,1.72,3.45,9.39,9.39,0,0,1,4-3.58,13,13,0,0,1,5.83-1.3A13,13,0,0,1,32.65,61.7ZM26.4,82.23A9.2,9.2,0,0,0,28,76.44a9.86,9.86,0,0,0-1.62-6.09,5.52,5.52,0,0,0-4.62-2.11,5.5,5.5,0,0,0-4.62,2.08,9.54,9.54,0,0,0-1.63,6,9.26,9.26,0,0,0,1.63,5.89,5.63,5.63,0,0,0,4.68,2A5.51,5.51,0,0,0,26.4,82.23Z"/><path class="cls-1" d="M68.59,60.73a4.57,4.57,0,0,1,1.3,3.54A5.08,5.08,0,0,1,68.69,68c-.8.79-2.24,1.29-4.33,1.5l-2,.2a6.89,6.89,0,0,0-4.65,2.05,6.79,6.79,0,0,0-1.4,4.52V87.43a4.83,4.83,0,0,1-1.66,4,7.08,7.08,0,0,1-8.26,0,4.83,4.83,0,0,1-1.66-4V64.92a4.68,4.68,0,0,1,1.66-3.84,6.08,6.08,0,0,1,4-1.36A5.61,5.61,0,0,1,54.31,61a4.6,4.6,0,0,1,1.46,3.64V65.9a8.73,8.73,0,0,1,3.42-4.43,9.87,9.87,0,0,1,5-1.69l.91-.06A4.34,4.34,0,0,1,68.59,60.73Z"/><path class="cls-1" d="M73.7,91.44a4.83,4.83,0,0,1-1.66-4V65.05a4.81,4.81,0,0,1,1.66-4,7.08,7.08,0,0,1,8.26,0,4.81,4.81,0,0,1,1.66,4V87.43a4.83,4.83,0,0,1-1.66,4,7.08,7.08,0,0,1-8.26,0Z"/><path class="cls-1" d="M139.32,62.74q2.85,3.16,2.86,10.64V87.43a4.83,4.83,0,0,1-1.66,4,7.08,7.08,0,0,1-8.26,0,4.83,4.83,0,0,1-1.66-4V73.12a5.62,5.62,0,0,0-.91-3.64,3.35,3.35,0,0,0-2.67-1,4.52,4.52,0,0,0-3.64,1.62A6.73,6.73,0,0,0,122,74.55V87.43a4.87,4.87,0,0,1-1.63,4,7.12,7.12,0,0,1-8.29,0,4.83,4.83,0,0,1-1.66-4V73.12a5.62,5.62,0,0,0-.91-3.64,3.35,3.35,0,0,0-2.67-1,4.43,4.43,0,0,0-3.61,1.62,6.89,6.89,0,0,0-1.34,4.49V87.43a4.86,4.86,0,0,1-1.65,4,7.09,7.09,0,0,1-8.27,0,4.86,4.86,0,0,1-1.66-4V64.92a4.6,4.6,0,0,1,1.73-3.87,6.53,6.53,0,0,1,4.13-1.33,6,6,0,0,1,3.8,1.2,4.32,4.32,0,0,1,1.6,3.48q3.18-4.82,9.76-4.81,7,0,9.3,5.66A11.92,11.92,0,0,1,125,61.12a12.42,12.42,0,0,1,6.18-1.53Q136.46,59.59,139.32,62.74Z"/><path class="cls-1" d="M174.55,63.13q3.54,3.56,3.54,10.77V87.5a5.11,5.11,0,0,1-1.46,3.87,5.67,5.67,0,0,1-4.07,1.4,5.41,5.41,0,0,1-3.74-1.3A4.87,4.87,0,0,1,167.23,88a7.22,7.22,0,0,1-3.06,3.65A9.81,9.81,0,0,1,159,92.9a13.35,13.35,0,0,1-6-1.33,10.42,10.42,0,0,1-4.19-3.71,9.71,9.71,0,0,1-1.53-5.37,8,8,0,0,1,1.79-5.5,10.55,10.55,0,0,1,5.69-3,48.2,48.2,0,0,1,10.54-.91h1.76v-.78a4.46,4.46,0,0,0-1-3.29,5,5,0,0,0-3.52-1,25.66,25.66,0,0,0-7.8,1.83,8.23,8.23,0,0,1-2.54.52,3.24,3.24,0,0,1-2.61-1.17,4.62,4.62,0,0,1-1-3.06,4.17,4.17,0,0,1,.59-2.34,5,5,0,0,1,1.88-1.63,22.88,22.88,0,0,1,5.73-1.89,33.7,33.7,0,0,1,6.76-.71Q171,59.59,174.55,63.13Zm-9,20.37a6.12,6.12,0,0,0,1.5-4.26v-.78h-1a16.79,16.79,0,0,0-5.92.74,2.57,2.57,0,0,0-1.76,2.51,3.4,3.4,0,0,0,.94,2.47,3.25,3.25,0,0,0,2.44,1A5,5,0,0,0,165.6,83.5Z"/><path class="cls-2" d="M217.2,61.18a5.07,5.07,0,0,1,1.56,3.87V88.47q0,7.95-4.79,12t-14,4.1a34,34,0,0,1-6.76-.65,18.36,18.36,0,0,1-5.4-1.89,5.15,5.15,0,0,1-1.86-1.69,4.19,4.19,0,0,1-.68-2.34,4.72,4.72,0,0,1,.94-3.06,3,3,0,0,1,2.44-1.17,17.07,17.07,0,0,1,4.23,1c1.35.43,2.54.77,3.58,1a14.12,14.12,0,0,0,3.19.36q4,0,5.82-1.66c1.24-1.1,1.86-2.85,1.86-5.23V86.78a10,10,0,0,1-4.1,3.42,13.4,13.4,0,0,1-5.79,1.27,14.15,14.15,0,0,1-7.42-2A13.39,13.39,0,0,1,184.92,84a18.35,18.35,0,0,1-1.82-8.36,18.59,18.59,0,0,1,1.82-8.39A13.5,13.5,0,0,1,190,61.57a14,14,0,0,1,7.42-2,13.14,13.14,0,0,1,5.85,1.3,9.72,9.72,0,0,1,4.1,3.58A4.65,4.65,0,0,1,209,61a6,6,0,0,1,4-1.27A5.89,5.89,0,0,1,217.2,61.18ZM205.68,80.93a7.72,7.72,0,0,0,1.69-5.34,8,8,0,0,0-1.69-5.4,6.72,6.72,0,0,0-9.44,0,8,8,0,0,0-1.69,5.43,7.66,7.66,0,0,0,1.73,5.31,6,6,0,0,0,4.65,1.91A6,6,0,0,0,205.68,80.93Z"/><path class="cls-2" d="M249.34,60.73a4.61,4.61,0,0,1,1.3,3.54A5,5,0,0,1,249.43,68q-1.2,1.18-4.32,1.5l-2,.2a6.94,6.94,0,0,0-4.66,2.05,6.79,6.79,0,0,0-1.4,4.52V87.43a4.86,4.86,0,0,1-1.65,4,7.09,7.09,0,0,1-8.27,0,4.86,4.86,0,0,1-1.66-4V64.92a4.71,4.71,0,0,1,1.66-3.84,6.1,6.1,0,0,1,4-1.36,5.58,5.58,0,0,1,3.87,1.3,4.61,4.61,0,0,1,1.47,3.64V65.9a8.66,8.66,0,0,1,3.41-4.43,9.93,9.93,0,0,1,5-1.69l.91-.06A4.35,4.35,0,0,1,249.34,60.73Z"/><path class="cls-2" d="M280.6,83.27a4.72,4.72,0,0,1,.94,3.06,4.31,4.31,0,0,1-2.53,4,25.34,25.34,0,0,1-5.24,1.85,23.26,23.26,0,0,1-5.56.75,20.24,20.24,0,0,1-9.31-2,14.25,14.25,0,0,1-6.11-5.79,17.48,17.48,0,0,1-2.15-8.85,17.85,17.85,0,0,1,2.05-8.62,14.75,14.75,0,0,1,5.72-5.92,16.34,16.34,0,0,1,8.3-2.11,15.47,15.47,0,0,1,7.87,1.95,13.26,13.26,0,0,1,5.24,5.53,18.08,18.08,0,0,1,1.85,8.39,3.46,3.46,0,0,1-.68,2.31,2.43,2.43,0,0,1-2,.82H261.83a7.1,7.1,0,0,0,2,4.49,6.82,6.82,0,0,0,4.61,1.36,11.75,11.75,0,0,0,3-.36,28.28,28.28,0,0,0,3.06-1c.65-.27,1.29-.49,1.92-.69a6,6,0,0,1,1.72-.29A3,3,0,0,1,280.6,83.27ZM263.39,68.86a7.07,7.07,0,0,0-1.63,4.26H272q-.39-5.73-5-5.73A4.72,4.72,0,0,0,263.39,68.86Z"/><path class="cls-2" d="M315.41,83.27a4.72,4.72,0,0,1,.94,3.06,4.31,4.31,0,0,1-2.54,4,25.24,25.24,0,0,1-5.23,1.85,23.34,23.34,0,0,1-5.57.75,20.2,20.2,0,0,1-9.3-2,14.27,14.27,0,0,1-6.12-5.79,17.58,17.58,0,0,1-2.14-8.85,17.85,17.85,0,0,1,2.05-8.62,14.75,14.75,0,0,1,5.72-5.92,16.34,16.34,0,0,1,8.3-2.11,15.49,15.49,0,0,1,7.87,1.95,13.32,13.32,0,0,1,5.24,5.53,18.08,18.08,0,0,1,1.85,8.39,3.52,3.52,0,0,1-.68,2.31,2.44,2.44,0,0,1-2,.82H296.64a7.15,7.15,0,0,0,2,4.49,6.83,6.83,0,0,0,4.62,1.36,11.8,11.8,0,0,0,3-.36,27.48,27.48,0,0,0,3.05-1c.65-.27,1.29-.49,1.92-.69A6.07,6.07,0,0,1,313,82.1,3,3,0,0,1,315.41,83.27ZM298.2,68.86a7,7,0,0,0-1.63,4.26h10.22q-.39-5.73-5-5.73A4.72,4.72,0,0,0,298.2,68.86Z"/><path class="cls-2" d="M351.81,63q2.79,3.42,2.8,10.38V87.43a5.06,5.06,0,0,1-1.56,3.91,7,7,0,0,1-8.46,0A5.06,5.06,0,0,1,343,87.43V73.9a6.82,6.82,0,0,0-1-4.16,3.59,3.59,0,0,0-3-1.3,5.36,5.36,0,0,0-4.13,1.65,6.34,6.34,0,0,0-1.53,4.46V87.43a5.06,5.06,0,0,1-1.56,3.91,7,7,0,0,1-8.46,0,5.06,5.06,0,0,1-1.56-3.91V64.92a4.79,4.79,0,0,1,1.63-3.74,6.09,6.09,0,0,1,4.23-1.46,5.53,5.53,0,0,1,3.93,1.36A4.67,4.67,0,0,1,333,64.66a11,11,0,0,1,4.36-3.77,13.26,13.26,0,0,1,5.92-1.3Q349,59.59,351.81,63Z"/><path class="cls-3" d="M98.4,31.35A1.6,1.6,0,0,0,97,29.9c-.43,0-10.62-.94-16.55,5a15.2,15.2,0,0,0-3,4.32,24.71,24.71,0,0,0-6.21-11.82c-3.58-3.58-8.89-6-15.35-6.89a39.84,39.84,0,0,0-8.7-.33,1.62,1.62,0,0,0-1.46,1.45A41.48,41.48,0,0,0,46,30.33c.93,6.46,3.31,11.76,6.89,15.34s8.89,6,15.35,6.89a41.83,41.83,0,0,0,6,.43c1.41,0,2.35-.07,2.6-.09s.86.07,1.8.07c3.3,0,10.21-.59,14.69-5.07C99.34,42,98.44,31.78,98.4,31.35Z"/><path class="cls-4" d="M88.55,40.26a1.61,1.61,0,0,0-2.28,0L77.42,49.1,63.71,35.39a1.61,1.61,0,0,0-2.28,2.28L76.19,52.43a1.62,1.62,0,0,0,1.14.47h.18a1.62,1.62,0,0,0,1.14-.47l9.9-9.89A1.61,1.61,0,0,0,88.55,40.26Z"/><path class="cls-4" d="M97,29.9c-.43,0-10.62-.94-16.55,5a15.2,15.2,0,0,0-3,4.32c0-.07,0-.13,0-.19V52.93c.32,0,.78,0,1.34,0,3.3,0,10.21-.59,14.69-5.07,5.93-5.93,5-16.12,5-16.55A1.6,1.6,0,0,0,97,29.9Z"/><path class="cls-5" d="M86.27,40.26,77.42,49.1l0,0V52.9h.13a1.62,1.62,0,0,0,1.14-.47l9.9-9.89a1.61,1.61,0,0,0-2.28-2.28Z"/></svg>